HIERARCHY
ROOT joint1
{
  OFFSET -3.64902 13.3974 0.898942
  CHANNELS 6 Xposition Yposition Zposition Zrotation Xrotation Yrotation
  JOINT joint2
  {
    OFFSET 0 -16 0
    CHANNELS 6 Xposition Yposition Zposition Zrotation Xrotation Yrotation
    End Site
    {
      OFFSET 0 0 0
    }
  }
}
MOTION
Frames:	39
Frame Time:	0.0166667
-3.64902 13.3974 0.898942 -0 -90 -90 -8.88178e-015 -16 -8.88178e-016 -90 -4.11546e-031 -7.06225e-031 
-3.62112 13.5737 1.32671 -179.607 -83.5756 89.8028 -8.88178e-015 -16 -8.88178e-016 -90 -5.90142e-017 1.2424e-017 
-3.58154 13.9176 1.99234 -179.028 -72.8879 89.4231 -1.06581e-014 -16 -1.33227e-015 -90 2.36057e-016 9.93923e-017 
-3.56518 14.294 2.43357 -179.058 -64.366 88.7778 -7.10543e-015 -16 -8.88178e-016 -90 4.96962e-017 4.96962e-016 
-3.55554 14.7376 2.80192 -179.354 -55.8754 87.9333 -5.32907e-015 -16 -8.88178e-016 -90 -4.96962e-016 1.98785e-016 
-3.54926 15.2417 3.09378 -179.612 -47.4178 87.2786 -7.10543e-015 -16 -1.33227e-015 -90 1.98785e-016 7.95139e-016 
-3.54183 15.7951 3.3123 179.929 -39.0069 86.3606 -1.15463e-014 -16 0 -90 3.97569e-016 -7.95139e-016 
-3.52891 16.3883 3.46958 179.666 -30.6249 86.1627 -9.76996e-015 -16 -1.33227e-015 -90 3.97569e-016 5.96354e-016 
-3.50664 17.0093 3.5352 178.844 -22.3273 84.6565 -7.99361e-015 -16 -4.44089e-016 -90 -7.95139e-016 1.19271e-015 
-3.45462 17.5932 3.52403 177.439 -13.5075 80.4483 -7.99361e-015 -16 -8.88178e-016 -90 -2.06736e-014 -1.59028e-015 
-3.41807 18.2901 3.51285 177.42 -5.88383 82.7626 -8.43769e-015 -16 -8.88178e-016 -90 7.95139e-016 1.88845e-015 
-4.01508 19.2558 3.72776 176.685 1.16349 90.3351 -8.88178e-015 -16 0 -90 1.90833e-014 -1.35562e-014 
-4.86553 20.4078 3.94267 176.027 12.1513 85.8475 -1.06581e-014 -16 0 -90 -4.77083e-015 1.60022e-014 
-5.28225 21.8732 3.78253 175.764 24.2275 83.3193 -8.88178e-015 -16 0 -90 -2.38542e-015 8.74653e-015 
-5.44554 23.179 3.62238 175.327 34.5157 82.7473 -7.10543e-015 -16 -1.77636e-015 -90 0 -6.75868e-015 
-5.35059 23.8253 3.72493 177.622 38.0917 79.2118 -7.10543e-015 -16 0 -90 8.74653e-015 5.56597e-015 
-5.12775 24.0201 4.1452 -178.277 36.8585 72.8309 -7.10543e-015 -16 0 -90 -1.59028e-015 -3.18055e-015 
-4.81143 23.5268 5.08778 -175.154 28.2784 68.8335 -8.88178e-015 -16 -1.77636e-015 -90 6.36111e-015 -6.36111e-015 
-4.42237 22.6614 6.16421 -173.534 17.002 68.081 -1.06581e-014 -16 8.88178e-016 -90 -3.18055e-015 -2.22639e-014 
-3.98792 21.8791 7.03963 -172.792 6.87806 65.9155 -8.88178e-015 -16 0 -90 6.36111e-015 -5.1684e-015 
-3.52253 21.0439 7.75785 -172.989 -2.98393 65.7104 -8.88178e-015 -16 4.44089e-016 -90 -3.18055e-015 -5.36719e-015 
-3.01464 20.1706 8.28574 -173.135 -12.2379 65.3751 -9.76996e-015 -16 4.44089e-016 -90 -9.54166e-015 1.43125e-014 
-2.56961 19.2625 8.51925 -175.876 -22.4953 63.7229 -9.76996e-015 -16 -8.88178e-016 -90 0 2.06736e-014 
-2.28672 18.3574 8.25475 174.943 -32.0079 57.4988 -9.76996e-015 -16 -1.55431e-015 -90 -6.36111e-015 2.70347e-014 
-2.17257 17.3674 7.69494 161.955 -40.528 48.3326 -8.88178e-015 -16 -8.88178e-016 -90 -9.54166e-015 -3.18055e-015 
-2.42128 16.1363 7.1316 151.419 -48.7609 43.4009 -1.06581e-014 -16 -1.33227e-015 -90 -4.77083e-015 -0 
-2.93933 14.9069 6.15671 135.97 -55.6422 34.7646 -7.10543e-015 -16 -8.88178e-016 -90 -3.18055e-015 9.54166e-015 
-3.70801 13.7161 3.97107 101.924 -60.254 7.89766 -8.88178e-015 -16 0 -90 4.37326e-015 -0 
-4.32724 13.0252 2.04005 74.1869 -59.4919 -12.958 -1.06581e-014 -16 -1.77636e-015 -90 -7.15625e-015 -1.27222e-014 
-4.4469 12.9751 1.62358 67.9432 -58.9527 -13.7068 -8.88178e-015 -16 -1.77636e-015 -90 5.56597e-015 -0 
-4.48709 12.968 1.43707 64.8504 -58.567 -14.4995 -7.10543e-015 -16 -8.88178e-016 -90 7.15625e-015 -0 
-4.58906 12.9747 0.933265 57.1021 -59.3822 -22.6104 -1.06581e-014 -16 -8.88178e-016 -90 -5.56597e-015 9.54166e-015 
-4.65061 13.022 0.261924 41.9187 -60.9409 -38.5237 -8.88178e-015 -16 -1.77636e-015 -90 -3.97569e-015 -9.54166e-015 
-4.5274 13.3422 -0.904588 19.6715 -59.9045 -65.6759 -8.88178e-015 -16 -8.88178e-016 -90 5.56597e-015 7.95139e-015 
-4.31983 13.6219 -1.6813 7.36716 -56.1412 -82.351 -7.10543e-015 -16 -1.77636e-015 -90 -5.1684e-015 3.57812e-015 
-4.14405 13.5105 -1.32374 6.77911 -61.0602 -83.2418 -1.06581e-014 -16 -8.88178e-016 -90 4.96962e-015 -3.97569e-015 
-3.97575 13.3542 -0.723951 8.08045 -68.9645 -81.6974 -1.06581e-014 -16 -8.88178e-016 -90 5.36719e-015 -5.1684e-015 
-3.8018 13.286 -0.112625 5.28253 -76.7948 -83.9934 -8.88178e-015 -16 -1.33227e-015 -90 -6.80837e-015 3.97569e-015 
-3.70474 13.2627 0.256478 0.657766 -81.4208 -88.3942 -7.10543e-015 -16 -4.44089e-016 -90 5.96354e-015 6.60959e-015 
